<svg preserveAspectRatio="none" width="100%" height="100%" overflow="visible" style="display: block;" viewBox="0 0 36 36" fill="none" xmlns="http://www.w3.org/2000/svg">
<g id="bullseye-arrow 1">
<path id="Vector" d="M33.6267 14.52C33.88 15.6533 34 16.8267 34 18C34 26.8267 26.8267 34 18 34C9.17333 34 2 26.8267 2 18C2 9.17333 9.17333 2 18 2C19.1733 2 20.3467 2.13333 21.48 2.37333C21.84 2.45333 22.0667 2.81333 21.9867 3.17333C21.9067 3.53333 21.5467 3.76 21.1867 3.68C20.1467 3.45333 19.0667 3.33333 18 3.33333C9.90667 3.33333 3.33333 9.90667 3.33333 18C3.33333 26.0933 9.90667 32.6667 18 32.6667C26.0933 32.6667 32.6667 26.0933 32.6667 18C32.6667 16.92 32.5467 15.8533 32.32 14.8133C32.24 14.4533 32.4667 14.0933 32.8267 14.0133C33.1867 13.9333 33.5467 14.16 33.6267 14.52ZM19.8667 8.85333C20.2267 8.92 20.5733 8.69333 20.6533 8.33333C20.72 7.97333 20.4933 7.62667 20.1333 7.54667C19.44 7.4 18.72 7.33333 18 7.33333C12.12 7.33333 7.33333 12.12 7.33333 18C7.33333 23.88 12.12 28.6667 18 28.6667C23.88 28.6667 28.6667 23.88 28.6667 18C28.6667 17.28 28.6 16.56 28.4533 15.8667C28.3867 15.5067 28.0267 15.28 27.6667 15.3467C27.3067 15.4267 27.0667 15.7733 27.1467 16.1333C27.2667 16.7467 27.3333 17.3733 27.3333 18C27.3333 23.1467 23.1467 27.3333 18 27.3333C12.8533 27.3333 8.66667 23.1467 8.66667 18C8.66667 12.8533 12.8533 8.66667 18 8.66667C18.6267 8.66667 19.2533 8.73333 19.8667 8.85333ZM17.4267 14.04C17.7867 13.9867 18.04 13.6533 17.9867 13.28C17.9333 12.9067 17.6 12.6533 17.2267 12.72C14.6133 13.0933 12.6533 15.36 12.6533 18C12.6533 20.9467 15.04 23.3333 17.9867 23.3333C20.6267 23.3333 22.8933 21.3733 23.2667 18.76C23.32 18.4 23.0667 18.0533 22.7067 18C22.3467 17.9467 22 18.2 21.9467 18.56C21.6667 20.52 19.96 21.9867 17.9867 21.9867C15.7867 21.9867 13.9867 20.1867 13.9867 17.9867C13.9867 16.0133 15.4533 14.3067 17.4133 14.0267L17.4267 14.04ZM23.3333 11.72V7.77333C23.3333 6.88 23.68 6.04 24.3067 5.41333L27.5333 2.2C27.72 2.01333 28.0133 1.94667 28.2533 2.05333C28.5067 2.16 28.6667 2.4 28.6667 2.66667V7.33333H33.3333C33.6 7.33333 33.84 7.49333 33.9467 7.74667C34.0533 8 33.9867 8.28 33.8 8.46667L30.5867 11.68C29.96 12.3067 29.12 12.6533 28.2267 12.6533H24.28L18.48 18.4533C18.3467 18.5867 18.1733 18.6533 18.0133 18.6533C17.8533 18.6533 17.6667 18.5867 17.5467 18.4533C17.28 18.1867 17.28 17.7733 17.5467 17.5067L23.3467 11.7067L23.3333 11.72ZM24.6667 11.3333H28.2267C28.76 11.3333 29.2667 11.12 29.64 10.7467L31.72 8.66667H28C27.6267 8.66667 27.3333 8.37333 27.3333 8V4.28L25.2533 6.36C24.88 6.73333 24.6667 7.24 24.6667 7.77333V11.3333Z" fill="var(--fill-0, #F7F9FA)" stroke="var(--stroke-0, #F6F8F9)"/>
</g>
</svg>
