<svg preserveAspectRatio="none" width="100%" height="100%" overflow="visible" style="display: block;" viewBox="0 0 36 36" fill="none" xmlns="http://www.w3.org/2000/svg">
<g id="heart-partner-handshake-2 1">
<path id="Vector" d="M33.5996 12.5511C33.5996 14.5486 32.9289 16.7304 31.6076 19.0363C31.4823 19.2532 31.2596 19.3733 31.0316 19.3733C30.9156 19.3733 30.7996 19.3433 30.6943 19.2792C30.3769 19.0881 30.2703 18.6706 30.4556 18.3459C31.6556 16.2515 32.2649 14.303 32.2649 12.5511C32.2649 8.26675 28.7703 4.36444 24.9316 4.36444C21.7929 4.36444 20.1863 5.62928 18.6876 7.03739L12.9663 12.8335C12.1809 13.6372 12.0343 14.8816 12.6289 15.7262C13.0063 16.2624 13.5609 16.5858 14.1916 16.6376C14.8129 16.6854 15.4236 16.4602 15.8636 16.01L21.7969 10.0201C22.0583 9.75536 22.4823 9.75808 22.7396 10.0269C22.9983 10.2943 22.9956 10.7268 22.7343 10.9915L20.8196 12.925L27.9089 19.2928C29.1943 20.4458 29.5169 22.3724 28.6596 23.775C28.1316 24.6401 27.2676 25.2213 26.2929 25.3673C25.9796 25.4151 25.6636 25.4178 25.3543 25.3728C25.5276 26.2133 25.4036 27.1001 24.9516 27.841C24.4223 28.7075 23.5583 29.2874 22.5836 29.4333C22.1209 29.5029 21.6583 29.4729 21.2209 29.3501C21.2743 30.0514 21.1263 30.7609 20.7516 31.3709C20.2236 32.2359 19.3596 32.8172 18.3849 32.9632C18.2209 32.9877 18.0583 33 17.8956 33C17.0863 33 16.2996 32.7012 15.6836 32.1472L11.3623 28.1794C4.79294 22.1036 1.59961 16.9924 1.59961 12.5511C1.59961 7.46309 5.65028 3 10.2663 3C11.8129 3 13.3583 3.51303 14.7383 4.48451C15.0423 4.69873 15.1183 5.12307 14.9103 5.4328C14.7023 5.74526 14.2876 5.82303 13.9836 5.60881C12.8276 4.79424 11.5423 4.36444 10.2676 4.36444C6.43028 4.36444 2.93428 8.26675 2.93428 12.5511C2.93428 16.5284 6.07028 21.4459 12.2556 27.1656L16.5689 31.1266C17.0103 31.5237 17.6023 31.6997 18.1929 31.6137C18.7889 31.525 19.2983 31.1812 19.6236 30.6477C20.1383 29.8072 19.9236 28.6311 19.1236 27.9134L14.6756 23.5867C14.4089 23.3275 14.3983 22.8963 14.6516 22.6234C14.9036 22.3492 15.3263 22.3382 15.5929 22.5961L20.7809 27.6077C21.2089 27.9925 21.8023 28.1753 22.3916 28.0839C22.9876 27.9952 23.4969 27.6514 23.8236 27.1179C24.3369 26.2788 24.1223 25.1026 23.3223 24.3849L18.3689 19.7963C18.0969 19.5439 18.0743 19.1141 18.3196 18.8344C18.5636 18.5533 18.9836 18.5301 19.2596 18.7798L24.4743 23.5294C24.9183 23.9265 25.5076 24.1052 26.1009 24.0179C26.6969 23.9278 27.2049 23.5853 27.5316 23.0518C28.0449 22.2114 27.8303 21.0352 27.0303 20.3189L19.8689 13.8855L16.8049 16.9787C16.0903 17.7101 15.0983 18.0771 14.0863 17.9993C13.0743 17.9147 12.1489 17.3785 11.5489 16.5244C10.5769 15.1435 10.7823 13.1419 12.0276 11.8675L17.7689 6.05226C19.4196 4.49952 21.3169 3.00136 24.9329 3.00136C29.5503 3.00136 33.5996 7.46446 33.5996 12.5525V12.5511Z" fill="var(--fill-0, #FAFAFA)" stroke="var(--stroke-0, #FAFAFA)"/>
</g>
</svg>
