<svg preserveAspectRatio="none" width="100%" height="100%" overflow="visible" style="display: block;" viewBox="0 0 34 34" fill="none" xmlns="http://www.w3.org/2000/svg">
<path id="Vector" d="M23.7505 5.34248L25.9784 1.34245C26.1558 1.01979 26.5638 0.905118 26.8851 1.08512C27.2064 1.26379 27.3224 1.66912 27.1424 1.99179L24.9145 5.99182C24.7931 6.21049 24.5651 6.33449 24.3318 6.33449C24.2212 6.33449 24.1105 6.30649 24.0078 6.25049C23.6865 6.07182 23.5705 5.66515 23.7505 5.34248ZM32.9436 8.0465C32.7943 7.70916 32.4023 7.5585 32.065 7.70383L28.0651 9.46517C27.7277 9.61318 27.5744 10.0078 27.7224 10.3438C27.8331 10.5945 28.0771 10.7425 28.3331 10.7425C28.4224 10.7425 28.5144 10.7238 28.601 10.6865L32.6009 8.92517C32.9383 8.77717 33.0916 8.3825 32.9436 8.0465ZM9.08419 5.99048C9.20552 6.20915 9.43352 6.33315 9.66685 6.33315C9.77751 6.33315 9.88817 6.30515 9.99084 6.24915C10.3122 6.07049 10.4282 5.66515 10.2482 5.34248L8.02155 1.34245C7.84289 1.01979 7.43623 0.906451 7.11491 1.08512C6.79358 1.26379 6.67759 1.66912 6.85758 1.99179L9.08553 5.99182L9.08419 5.99048ZM5.93494 9.46517L1.93504 7.70383C1.60038 7.55983 1.20572 7.70783 1.05639 8.0465C0.908396 8.3825 1.06173 8.77717 1.39905 8.92517L5.39895 10.6865C5.48562 10.7238 5.57761 10.7425 5.66695 10.7425C5.92294 10.7425 6.16693 10.5945 6.2776 10.3438C6.42559 10.0078 6.27226 9.61318 5.93494 9.46517ZM27.6664 16.9986C27.6664 20.4426 25.9878 23.6919 23.1758 25.6906C22.6479 26.0666 22.3332 26.672 22.3332 27.3106V29C22.3332 31.2053 20.5386 33 18.3333 33H15.6667C13.4228 33 11.6668 31.164 11.6668 28.8186V27.3093C11.6668 26.672 11.3481 26.064 10.8135 25.684C7.5389 23.3479 5.86694 19.4092 6.44959 15.4025C7.13358 10.7078 11.0588 6.92249 15.7867 6.39982C18.8626 6.05849 21.8225 6.99983 24.1132 9.04917C26.3704 11.0719 27.6664 13.9679 27.6664 16.9986ZM20.9999 28.9986V27.6653H13.0001V28.8173C13.0001 30.4413 14.1454 31.6653 15.6667 31.6653H18.3333C19.8039 31.6653 20.9999 30.4693 20.9999 28.9986ZM26.3331 16.9986C26.3331 14.3479 25.1998 11.8119 23.2238 10.0425C21.4892 8.4905 19.3159 7.66516 17.0133 7.66516C16.656 7.66516 16.296 7.68516 15.932 7.72516C11.7988 8.18117 8.36555 11.4905 7.76956 15.5945C7.25891 19.1039 8.72154 22.5546 11.5868 24.5973C12.1921 25.0293 12.6148 25.6466 12.8308 26.332H16.3333V19.5972C14.8134 19.2879 13.6667 17.9412 13.6667 16.3319C13.6667 15.9639 13.9654 15.6652 14.3334 15.6652C14.7014 15.6652 15 15.9639 15 16.3319C15 17.4346 15.8974 18.3319 17 18.3319C18.1026 18.3319 18.9999 17.4346 18.9999 16.3319C18.9999 15.9639 19.2986 15.6652 19.6666 15.6652C20.0346 15.6652 20.3332 15.9639 20.3332 16.3319C20.3332 17.9426 19.1866 19.2879 17.6666 19.5972V26.332H21.1679C21.3826 25.648 21.8012 25.0319 22.4025 24.6039C24.8651 22.8546 26.3331 20.0119 26.3331 16.9986Z" fill="var(--fill-0, white)" stroke="var(--stroke-0, white)"/>
</svg>
