<svg preserveAspectRatio="none" width="100%" height="100%" overflow="visible" style="display: block;" viewBox="0 0 1186 540" fill="none" xmlns="http://www.w3.org/2000/svg">
<g id="Vector" style="mix-blend-mode:soft-light" opacity="0.7">
<path d="M27.9077 1H1V27.9077M27.9077 1V27.9077M27.9077 1H54.8153M27.9077 27.9077H1M27.9077 27.9077V54.8153M27.9077 27.9077H54.8153M1 27.9077V54.8153M27.9077 54.8153H1M27.9077 54.8153V81.723M27.9077 54.8153H54.8153M1 54.8153V81.723M27.9077 81.723H1M27.9077 81.723V108.631M27.9077 81.723H54.8153M1 81.723V108.631M27.9077 108.631H1M27.9077 108.631V135.538M27.9077 108.631H54.8153M1 108.631V135.538M27.9077 135.538H1M27.9077 135.538V162.446M27.9077 135.538H54.8153M1 135.538V162.446M27.9077 162.446H1M27.9077 162.446V189.354M27.9077 162.446H54.8153M1 162.446V189.354M27.9077 189.354H1M27.9077 189.354V216.261M27.9077 189.354H54.8153M1 189.354V216.261M27.9077 216.261H1M27.9077 216.261V243.169M27.9077 216.261H54.8153M1 216.261V243.169M27.9077 243.169H1M27.9077 243.169V270.077M27.9077 243.169H54.8153M1 243.169V270.077M27.9077 270.077H1M27.9077 270.077V296.984M27.9077 270.077H54.8153M1 270.077V296.984M27.9077 296.984H1M27.9077 296.984V323.892M27.9077 296.984H54.8153M1 296.984V323.892M27.9077 323.892H1M27.9077 323.892V350.8M27.9077 323.892H54.8153M1 323.892V350.8M27.9077 350.8H1M27.9077 350.8V377.707M27.9077 350.8H54.8153M1 350.8V377.707M27.9077 377.707H1M27.9077 377.707V404.615M27.9077 377.707H54.8153M1 377.707V404.615M27.9077 404.615H1M27.9077 404.615V431.523M27.9077 404.615H54.8153M1 404.615V431.523M27.9077 431.523H1M27.9077 431.523V458.43M27.9077 431.523H54.8153M1 431.523V458.43M27.9077 458.43H1M27.9077 458.43V485.338M27.9077 458.43H54.8153M1 458.43V485.338M27.9077 485.338H1M27.9077 485.338V512.246M27.9077 485.338H54.8153M1 485.338V512.246M27.9077 512.246H1M27.9077 512.246V539.153M27.9077 512.246H54.8153M1 512.246V539.153H27.9077M27.9077 539.153H54.8153M54.8153 1V27.9077M54.8153 1H81.723M54.8153 27.9077V54.8153M54.8153 27.9077H81.723M54.8153 54.8153V81.723M54.8153 54.8153H81.723M54.8153 81.723V108.631M54.8153 81.723H81.723M54.8153 108.631V135.538M54.8153 108.631H81.723M54.8153 135.538V162.446M54.8153 135.538H81.723M54.8153 162.446V189.354M54.8153 162.446H81.723M54.8153 189.354V216.261M54.8153 189.354H81.723M54.8153 216.261V243.169M54.8153 216.261H81.723M54.8153 243.169V270.077M54.8153 243.169H81.723M54.8153 270.077V296.984M54.8153 270.077H81.723M54.8153 296.984V323.892M54.8153 296.984H81.723M54.8153 323.892V350.8M54.8153 323.892H81.723M54.8153 350.8V377.707M54.8153 350.8H81.723M54.8153 377.707V404.615M54.8153 377.707H81.723M54.8153 404.615V431.523M54.8153 404.615H81.723M54.8153 431.523V458.43M54.8153 431.523H81.723M54.8153 458.43V485.338M54.8153 458.43H81.723M54.8153 485.338V512.246M54.8153 485.338H81.723M54.8153 512.246V539.153M54.8153 512.246H81.723M54.8153 539.153H81.723M81.723 1V27.9077M81.723 1H108.631M81.723 27.9077V54.8153M81.723 27.9077H108.631M81.723 54.8153V81.723M81.723 54.8153H108.631M81.723 81.723V108.631M81.723 81.723H108.631M81.723 108.631V135.538M81.723 108.631H108.631M81.723 135.538V162.446M81.723 135.538H108.631M81.723 162.446V189.354M81.723 162.446H108.631M81.723 189.354V216.261M81.723 189.354H108.631M81.723 216.261V243.169M81.723 216.261H108.631M81.723 243.169V270.077M81.723 243.169H108.631M81.723 270.077V296.984M81.723 270.077H108.631M81.723 296.984V323.892M81.723 296.984H108.631M81.723 323.892V350.8M81.723 323.892H108.631M81.723 350.8V377.707M81.723 350.8H108.631M81.723 377.707V404.615M81.723 377.707H108.631M81.723 404.615V431.523M81.723 404.615H108.631M81.723 431.523V458.43M81.723 431.523H108.631M81.723 458.43V485.338M81.723 458.43H108.631M81.723 485.338V512.246M81.723 485.338H108.631M81.723 512.246V539.153M81.723 512.246H108.631M81.723 539.153H108.631M108.631 1V27.9077M108.631 1H135.538M108.631 27.9077V54.8153M108.631 27.9077H135.538M108.631 54.8153V81.723M108.631 54.8153H135.538M108.631 81.723V108.631M108.631 81.723H135.538M108.631 108.631V135.538M108.631 108.631H135.538M108.631 135.538V162.446M108.631 135.538H135.538M108.631 162.446V189.354M108.631 162.446H135.538M108.631 189.354V216.261M108.631 189.354H135.538M108.631 216.261V243.169M108.631 216.261H135.538M108.631 243.169V270.077M108.631 243.169H135.538M108.631 270.077V296.984M108.631 270.077H135.538M108.631 296.984V323.892M108.631 296.984H135.538M108.631 323.892V350.8M108.631 323.892H135.538M108.631 350.8V377.707M108.631 350.8H135.538M108.631 377.707V404.615M108.631 377.707H135.538M108.631 404.615V431.523M108.631 404.615H135.538M108.631 431.523V458.43M108.631 431.523H135.538M108.631 458.43V485.338M108.631 458.43H135.538M108.631 485.338V512.246M108.631 485.338H135.538M108.631 512.246V539.153M108.631 512.246H135.538M108.631 539.153H135.538M135.538 1V27.9077M135.538 1H162.446M135.538 27.9077V54.8153M135.538 27.9077H162.446M135.538 54.8153V81.723M135.538 54.8153H162.446M135.538 81.723V108.631M135.538 81.723H162.446M135.538 108.631V135.538M135.538 108.631H162.446M135.538 135.538V162.446M135.538 135.538H162.446M135.538 162.446V189.354M135.538 162.446H162.446M135.538 189.354V216.261M135.538 189.354H162.446M135.538 216.261V243.169M135.538 216.261H162.446M135.538 243.169V270.077M135.538 243.169H162.446M135.538 270.077V296.984M135.538 270.077H162.446M135.538 296.984V323.892M135.538 296.984H162.446M135.538 323.892V350.8M135.538 323.892H162.446M135.538 350.8V377.707M135.538 350.8H162.446M135.538 377.707V404.615M135.538 377.707H162.446M135.538 404.615V431.523M135.538 404.615H162.446M135.538 431.523V458.43M135.538 431.523H162.446M135.538 458.43V485.338M135.538 458.43H162.446M135.538 485.338V512.246M135.538 485.338H162.446M135.538 512.246V539.153M135.538 512.246H162.446M135.538 539.153H162.446M162.446 1V27.9077M162.446 1H189.354M162.446 27.9077V54.8153M162.446 27.9077H189.354M162.446 54.8153V81.723M162.446 54.8153H189.354M162.446 81.723V108.631M162.446 81.723H189.354M162.446 108.631V135.538M162.446 108.631H189.354M162.446 135.538V162.446M162.446 135.538H189.354M162.446 162.446V189.354M162.446 162.446H189.354M162.446 189.354V216.261M162.446 189.354H189.354M162.446 216.261V243.169M162.446 216.261H189.354M162.446 243.169V270.077M162.446 243.169H189.354M162.446 270.077V296.984M162.446 270.077H189.354M162.446 296.984V323.892M162.446 296.984H189.354M162.446 323.892V350.8M162.446 323.892H189.354M162.446 350.8V377.707M162.446 350.8H189.354M162.446 377.707V404.615M162.446 377.707H189.354M162.446 404.615V431.523M162.446 404.615H189.354M162.446 431.523V458.43M162.446 431.523H189.354M162.446 458.43V485.338M162.446 458.43H189.354M162.446 485.338V512.246M162.446 485.338H189.354M162.446 512.246V539.153M162.446 512.246H189.354M162.446 539.153H189.354M189.354 1V27.9077M189.354 1H216.261M189.354 27.9077V54.8153M189.354 27.9077H216.261M189.354 54.8153V81.723M189.354 54.8153H216.261M189.354 81.723V108.631M189.354 81.723H216.261M189.354 108.631V135.538M189.354 108.631H216.261M189.354 135.538V162.446M189.354 135.538H216.261M189.354 162.446V189.354M189.354 162.446H216.261M189.354 189.354V216.261M189.354 189.354H216.261M189.354 216.261V243.169M189.354 216.261H216.261M189.354 243.169V270.077M189.354 243.169H216.261M189.354 270.077V296.984M189.354 270.077H216.261M189.354 296.984V323.892M189.354 296.984H216.261M189.354 323.892V350.8M189.354 323.892H216.261M189.354 350.8V377.707M189.354 350.8H216.261M189.354 377.707V404.615M189.354 377.707H216.261M189.354 404.615V431.523M189.354 404.615H216.261M189.354 431.523V458.43M189.354 431.523H216.261M189.354 458.43V485.338M189.354 458.43H216.261M189.354 485.338V512.246M189.354 485.338H216.261M189.354 512.246V539.153M189.354 512.246H216.261M189.354 539.153H216.261M216.261 1V27.9077M216.261 1H243.169M216.261 27.9077V54.8153M216.261 27.9077H243.169M216.261 54.8153V81.723M216.261 54.8153H243.169M216.261 81.723V108.631M216.261 81.723H243.169M216.261 108.631V135.538M216.261 108.631H243.169M216.261 135.538V162.446M216.261 135.538H243.169M216.261 162.446V189.354M216.261 162.446H243.169M216.261 189.354V216.261M216.261 189.354H243.169M216.261 216.261V243.169M216.261 216.261H243.169M216.261 243.169V270.077M216.261 243.169H243.169M216.261 270.077V296.984M216.261 270.077H243.169M216.261 296.984V323.892M216.261 296.984H243.169M216.261 323.892V350.8M216.261 323.892H243.169M216.261 350.8V377.707M216.261 350.8H243.169M216.261 377.707V404.615M216.261 377.707H243.169M216.261 404.615V431.523M216.261 404.615H243.169M216.261 431.523V458.43M216.261 431.523H243.169M216.261 458.43V485.338M216.261 458.43H243.169M216.261 485.338V512.246M216.261 485.338H243.169M216.261 512.246V539.153M216.261 512.246H243.169M216.261 539.153H243.169M243.169 1V27.9077M243.169 1H270.077M243.169 27.9077V54.8153M243.169 27.9077H270.077M243.169 54.8153V81.723M243.169 54.8153H270.077M243.169 81.723V108.631M243.169 81.723H270.077M243.169 108.631V135.538M243.169 108.631H270.077M243.169 135.538V162.446M243.169 135.538H270.077M243.169 162.446V189.354M243.169 162.446H270.077M243.169 189.354V216.261M243.169 189.354H270.077M243.169 216.261V243.169M243.169 216.261H270.077M243.169 243.169V270.077M243.169 243.169H270.077M243.169 270.077V296.984M243.169 270.077H270.077M243.169 296.984V323.892M243.169 296.984H270.077M243.169 323.892V350.8M243.169 323.892H270.077M243.169 350.8V377.707M243.169 350.8H270.077M243.169 377.707V404.615M243.169 377.707H270.077M243.169 404.615V431.523M243.169 404.615H270.077M243.169 431.523V458.43M243.169 431.523H270.077M243.169 458.43V485.338M243.169 458.43H270.077M243.169 485.338V512.246M243.169 485.338H270.077M243.169 512.246V539.153M243.169 512.246H270.077M243.169 539.153H270.077M270.077 1V27.9077M270.077 1H296.984M270.077 27.9077V54.8153M270.077 27.9077H296.984M270.077 54.8153V81.723M270.077 54.8153H296.984M270.077 81.723V108.631M270.077 81.723H296.984M270.077 108.631V135.538M270.077 108.631H296.984M270.077 135.538V162.446M270.077 135.538H296.984M270.077 162.446V189.354M270.077 162.446H296.984M270.077 189.354V216.261M270.077 189.354H296.984M270.077 216.261V243.169M270.077 216.261H296.984M270.077 243.169V270.077M270.077 243.169H296.984M270.077 270.077V296.984M270.077 270.077H296.984M270.077 296.984V323.892M270.077 296.984H296.984M270.077 323.892V350.8M270.077 323.892H296.984M270.077 350.8V377.707M270.077 350.8H296.984M270.077 377.707V404.615M270.077 377.707H296.984M270.077 404.615V431.523M270.077 404.615H296.984M270.077 431.523V458.43M270.077 431.523H296.984M270.077 458.43V485.338M270.077 458.43H296.984M270.077 485.338V512.246M270.077 485.338H296.984M270.077 512.246V539.153M270.077 512.246H296.984M270.077 539.153H296.984M296.984 1V27.9077M296.984 1H323.892M296.984 27.9077V54.8153M296.984 27.9077H323.892M296.984 54.8153V81.723M296.984 54.8153H323.892M296.984 81.723V108.631M296.984 81.723H323.892M296.984 108.631V135.538M296.984 108.631H323.892M296.984 135.538V162.446M296.984 135.538H323.892M296.984 162.446V189.354M296.984 162.446H323.892M296.984 189.354V216.261M296.984 189.354H323.892M296.984 216.261V243.169M296.984 216.261H323.892M296.984 243.169V270.077M296.984 243.169H323.892M296.984 270.077V296.984M296.984 270.077H323.892M296.984 296.984V323.892M296.984 296.984H323.892M296.984 323.892V350.8M296.984 323.892H323.892M296.984 350.8V377.707M296.984 350.8H323.892M296.984 377.707V404.615M296.984 377.707H323.892M296.984 404.615V431.523M296.984 404.615H323.892M296.984 431.523V458.43M296.984 431.523H323.892M296.984 458.43V485.338M296.984 458.43H323.892M296.984 485.338V512.246M296.984 485.338H323.892M296.984 512.246V539.153M296.984 512.246H323.892M296.984 539.153H323.892M323.892 1V27.9077M323.892 1H350.8M323.892 27.9077V54.8153M323.892 27.9077H350.8M323.892 54.8153V81.723M323.892 54.8153H350.8M323.892 81.723V108.631M323.892 81.723H350.8M323.892 108.631V135.538M323.892 108.631H350.8M323.892 135.538V162.446M323.892 135.538H350.8M323.892 162.446V189.354M323.892 162.446H350.8M323.892 189.354V216.261M323.892 189.354H350.8M323.892 216.261V243.169M323.892 216.261H350.8M323.892 243.169V270.077M323.892 243.169H350.8M323.892 270.077V296.984M323.892 270.077H350.8M323.892 296.984V323.892M323.892 296.984H350.8M323.892 323.892V350.8M323.892 323.892H350.8M323.892 350.8V377.707M323.892 350.8H350.8M323.892 377.707V404.615M323.892 377.707H350.8M323.892 404.615V431.523M323.892 404.615H350.8M323.892 431.523V458.43M323.892 431.523H350.8M323.892 458.43V485.338M323.892 458.43H350.8M323.892 485.338V512.246M323.892 485.338H350.8M323.892 512.246V539.153M323.892 512.246H350.8M323.892 539.153H350.8M350.8 1V27.9077M350.8 1H377.707M350.8 27.9077V54.8153M350.8 27.9077H377.707M350.8 54.8153V81.723M350.8 54.8153H377.707M350.8 81.723V108.631M350.8 81.723H377.707M350.8 108.631V135.538M350.8 108.631H377.707M350.8 135.538V162.446M350.8 135.538H377.707M350.8 162.446V189.354M350.8 162.446H377.707M350.8 189.354V216.261M350.8 189.354H377.707M350.8 216.261V243.169M350.8 216.261H377.707M350.8 243.169V270.077M350.8 243.169H377.707M350.8 270.077V296.984M350.8 270.077H377.707M350.8 296.984V323.892M350.8 296.984H377.707M350.8 323.892V350.8M350.8 323.892H377.707M350.8 350.8V377.707M350.8 350.8H377.707M350.8 377.707V404.615M350.8 377.707H377.707M350.8 404.615V431.523M350.8 404.615H377.707M350.8 431.523V458.43M350.8 431.523H377.707M350.8 458.43V485.338M350.8 458.43H377.707M350.8 485.338V512.246M350.8 485.338H377.707M350.8 512.246V539.153M350.8 512.246H377.707M350.8 539.153H377.707M377.707 1V27.9077M377.707 1H404.615M377.707 27.9077V54.8153M377.707 27.9077H404.615M377.707 54.8153V81.723M377.707 54.8153H404.615M377.707 81.723V108.631M377.707 81.723H404.615M377.707 108.631V135.538M377.707 108.631H404.615M377.707 135.538V162.446M377.707 135.538H404.615M377.707 162.446V189.354M377.707 162.446H404.615M377.707 189.354V216.261M377.707 189.354H404.615M377.707 216.261V243.169M377.707 216.261H404.615M377.707 243.169V270.077M377.707 243.169H404.615M377.707 270.077V296.984M377.707 270.077H404.615M377.707 296.984V323.892M377.707 296.984H404.615M377.707 323.892V350.8M377.707 323.892H404.615M377.707 350.8V377.707M377.707 350.8H404.615M377.707 377.707V404.615M377.707 377.707H404.615M377.707 404.615V431.523M377.707 404.615H404.615M377.707 431.523V458.43M377.707 431.523H404.615M377.707 458.43V485.338M377.707 458.43H404.615M377.707 485.338V512.246M377.707 485.338H404.615M377.707 512.246V539.153M377.707 512.246H404.615M377.707 539.153H404.615M404.615 1V27.9077M404.615 1H431.523M404.615 27.9077V54.8153M404.615 27.9077H431.523M404.615 54.8153V81.723M404.615 54.8153H431.523M404.615 81.723V108.631M404.615 81.723H431.523M404.615 108.631V135.538M404.615 108.631H431.523M404.615 135.538V162.446M404.615 135.538H431.523M404.615 162.446V189.354M404.615 162.446H431.523M404.615 189.354V216.261M404.615 189.354H431.523M404.615 216.261V243.169M404.615 216.261H431.523M404.615 243.169V270.077M404.615 243.169H431.523M404.615 270.077V296.984M404.615 270.077H431.523M404.615 296.984V323.892M404.615 296.984H431.523M404.615 323.892V350.8M404.615 323.892H431.523M404.615 350.8V377.707M404.615 350.8H431.523M404.615 377.707V404.615M404.615 377.707H431.523M404.615 404.615V431.523M404.615 404.615H431.523M404.615 431.523V458.43M404.615 431.523H431.523M404.615 458.43V485.338M404.615 458.43H431.523M404.615 485.338V512.246M404.615 485.338H431.523M404.615 512.246V539.153M404.615 512.246H431.523M404.615 539.153H431.523M431.523 1V27.9077M431.523 1H458.43M431.523 27.9077V54.8153M431.523 27.9077H458.43M431.523 54.8153V81.723M431.523 54.8153H458.43M431.523 81.723V108.631M431.523 81.723H458.43M431.523 108.631V135.538M431.523 108.631H458.43M431.523 135.538V162.446M431.523 135.538H458.43M431.523 162.446V189.354M431.523 162.446H458.43M431.523 189.354V216.261M431.523 189.354H458.43M431.523 216.261V243.169M431.523 216.261H458.43M431.523 243.169V270.077M431.523 243.169H458.43M431.523 270.077V296.984M431.523 270.077H458.43M431.523 296.984V323.892M431.523 296.984H458.43M431.523 323.892V350.8M431.523 323.892H458.43M431.523 350.8V377.707M431.523 350.8H458.43M431.523 377.707V404.615M431.523 377.707H458.43M431.523 404.615V431.523M431.523 404.615H458.43M431.523 431.523V458.43M431.523 431.523H458.43M431.523 458.43V485.338M431.523 458.43H458.43M431.523 485.338V512.246M431.523 485.338H458.43M431.523 512.246V539.153M431.523 512.246H458.43M431.523 539.153H458.43M458.43 1V27.9077M458.43 1H485.338M458.43 27.9077V54.8153M458.43 27.9077H485.338M458.43 54.8153V81.723M458.43 54.8153H485.338M458.43 81.723V108.631M458.43 81.723H485.338M458.43 108.631V135.538M458.43 108.631H485.338M458.43 135.538V162.446M458.43 135.538H485.338M458.43 162.446V189.354M458.43 162.446H485.338M458.43 189.354V216.261M458.43 189.354H485.338M458.43 216.261V243.169M458.43 216.261H485.338M458.43 243.169V270.077M458.43 243.169H485.338M458.43 270.077V296.984M458.43 270.077H485.338M458.43 296.984V323.892M458.43 296.984H485.338M458.43 323.892V350.8M458.43 323.892H485.338M458.43 350.8V377.707M458.43 350.8H485.338M458.43 377.707V404.615M458.43 377.707H485.338M458.43 404.615V431.523M458.43 404.615H485.338M458.43 431.523V458.43M458.43 431.523H485.338M458.43 458.43V485.338M458.43 458.43H485.338M458.43 485.338V512.246M458.43 485.338H485.338M458.43 512.246V539.153M458.43 512.246H485.338M458.43 539.153H485.338M485.338 1V27.9077M485.338 1H512.246M485.338 27.9077V54.8153M485.338 27.9077H512.246M485.338 54.8153V81.723M485.338 54.8153H512.246M485.338 81.723V108.631M485.338 81.723H512.246M485.338 108.631V135.538M485.338 108.631H512.246M485.338 135.538V162.446M485.338 135.538H512.246M485.338 162.446V189.354M485.338 162.446H512.246M485.338 189.354V216.261M485.338 189.354H512.246M485.338 216.261V243.169M485.338 216.261H512.246M485.338 243.169V270.077M485.338 243.169H512.246M485.338 270.077V296.984M485.338 270.077H512.246M485.338 296.984V323.892M485.338 296.984H512.246M485.338 323.892V350.8M485.338 323.892H512.246M485.338 350.8V377.707M485.338 350.8H512.246M485.338 377.707V404.615M485.338 377.707H512.246M485.338 404.615V431.523M485.338 404.615H512.246M485.338 431.523V458.43M485.338 431.523H512.246M485.338 458.43V485.338M485.338 458.43H512.246M485.338 485.338V512.246M485.338 485.338H512.246M485.338 512.246V539.153M485.338 512.246H512.246M485.338 539.153H512.246M512.246 1V27.9077M512.246 1H539.153M512.246 27.9077V54.8153M512.246 27.9077H539.153M512.246 54.8153V81.723M512.246 54.8153H539.153M512.246 81.723V108.631M512.246 81.723H539.153M512.246 108.631V135.538M512.246 108.631H539.153M512.246 135.538V162.446M512.246 135.538H539.153M512.246 162.446V189.354M512.246 162.446H539.153M512.246 189.354V216.261M512.246 189.354H539.153M512.246 216.261V243.169M512.246 216.261H539.153M512.246 243.169V270.077M512.246 243.169H539.153M512.246 270.077V296.984M512.246 270.077H539.153M512.246 296.984V323.892M512.246 296.984H539.153M512.246 323.892V350.8M512.246 323.892H539.153M512.246 350.8V377.707M512.246 350.8H539.153M512.246 377.707V404.615M512.246 377.707H539.153M512.246 404.615V431.523M512.246 404.615H539.153M512.246 431.523V458.43M512.246 431.523H539.153M512.246 458.43V485.338M512.246 458.43H539.153M512.246 485.338V512.246M512.246 485.338H539.153M512.246 512.246V539.153M512.246 512.246H539.153M512.246 539.153H539.153M539.153 1V27.9077M539.153 1H566.061M539.153 27.9077V54.8153M539.153 27.9077H566.061M539.153 54.8153V81.723M539.153 54.8153H566.061M539.153 81.723V108.631M539.153 81.723H566.061M539.153 108.631V135.538M539.153 108.631H566.061M539.153 135.538V162.446M539.153 135.538H566.061M539.153 162.446V189.354M539.153 162.446H566.061M539.153 189.354V216.261M539.153 189.354H566.061M539.153 216.261V243.169M539.153 216.261H566.061M539.153 243.169V270.077M539.153 243.169H566.061M539.153 270.077V296.984M539.153 270.077H566.061M539.153 296.984V323.892M539.153 296.984H566.061M539.153 323.892V350.8M539.153 323.892H566.061M539.153 350.8V377.707M539.153 350.8H566.061M539.153 377.707V404.615M539.153 377.707H566.061M539.153 404.615V431.523M539.153 404.615H566.061M539.153 431.523V458.43M539.153 431.523H566.061M539.153 458.43V485.338M539.153 458.43H566.061M539.153 485.338V512.246M539.153 485.338H566.061M539.153 512.246V539.153M539.153 512.246H566.061M539.153 539.153H566.061M566.061 1V27.9077M566.061 1H592.969M566.061 27.9077V54.8153M566.061 27.9077H592.969M566.061 54.8153V81.723M566.061 54.8153H592.969M566.061 81.723V108.631M566.061 81.723H592.969M566.061 108.631V135.538M566.061 108.631H592.969M566.061 135.538V162.446M566.061 135.538H592.969M566.061 162.446V189.354M566.061 162.446H592.969M566.061 189.354V216.261M566.061 189.354H592.969M566.061 216.261V243.169M566.061 216.261H592.969M566.061 243.169V270.077M566.061 243.169H592.969M566.061 270.077V296.984M566.061 270.077H592.969M566.061 296.984V323.892M566.061 296.984H592.969M566.061 323.892V350.8M566.061 323.892H592.969M566.061 350.8V377.707M566.061 350.8H592.969M566.061 377.707V404.615M566.061 377.707H592.969M566.061 404.615V431.523M566.061 404.615H592.969M566.061 431.523V458.43M566.061 431.523H592.969M566.061 458.43V485.338M566.061 458.43H592.969M566.061 485.338V512.246M566.061 485.338H592.969M566.061 512.246V539.153M566.061 512.246H592.969M566.061 539.153H592.969M592.969 1V27.9077M592.969 1H619.876M592.969 27.9077V54.8153M592.969 27.9077H619.876M592.969 54.8153V81.723M592.969 54.8153H619.876M592.969 81.723V108.631M592.969 81.723H619.876M592.969 108.631V135.538M592.969 108.631H619.876M592.969 135.538V162.446M592.969 135.538H619.876M592.969 162.446V189.354M592.969 162.446H619.876M592.969 189.354V216.261M592.969 189.354H619.876M592.969 216.261V243.169M592.969 216.261H619.876M592.969 243.169V270.077M592.969 243.169H619.876M592.969 270.077V296.984M592.969 270.077H619.876M592.969 296.984V323.892M592.969 296.984H619.876M592.969 323.892V350.8M592.969 323.892H619.876M592.969 350.8V377.707M592.969 350.8H619.876M592.969 377.707V404.615M592.969 377.707H619.876M592.969 404.615V431.523M592.969 404.615H619.876M592.969 431.523V458.43M592.969 431.523H619.876M592.969 458.43V485.338M592.969 458.43H619.876M592.969 485.338V512.246M592.969 485.338H619.876M592.969 512.246V539.153M592.969 512.246H619.876M592.969 539.153H619.876M619.876 1V27.9077M619.876 1H646.784M619.876 27.9077V54.8153M619.876 27.9077H646.784M619.876 54.8153V81.723M619.876 54.8153H646.784M619.876 81.723V108.631M619.876 81.723H646.784M619.876 108.631V135.538M619.876 108.631H646.784M619.876 135.538V162.446M619.876 135.538H646.784M619.876 162.446V189.354M619.876 162.446H646.784M619.876 189.354V216.261M619.876 189.354H646.784M619.876 216.261V243.169M619.876 216.261H646.784M619.876 243.169V270.077M619.876 243.169H646.784M619.876 270.077V296.984M619.876 270.077H646.784M619.876 296.984V323.892M619.876 296.984H646.784M619.876 323.892V350.8M619.876 323.892H646.784M619.876 350.8V377.707M619.876 350.8H646.784M619.876 377.707V404.615M619.876 377.707H646.784M619.876 404.615V431.523M619.876 404.615H646.784M619.876 431.523V458.43M619.876 431.523H646.784M619.876 458.43V485.338M619.876 458.43H646.784M619.876 485.338V512.246M619.876 485.338H646.784M619.876 512.246V539.153M619.876 512.246H646.784M619.876 539.153H646.784M646.784 1V27.9077M646.784 1H673.692M646.784 27.9077V54.8153M646.784 27.9077H673.692M646.784 54.8153V81.723M646.784 54.8153H673.692M646.784 81.723V108.631M646.784 81.723H673.692M646.784 108.631V135.538M646.784 108.631H673.692M646.784 135.538V162.446M646.784 135.538H673.692M646.784 162.446V189.354M646.784 162.446H673.692M646.784 189.354V216.261M646.784 189.354H673.692M646.784 216.261V243.169M646.784 216.261H673.692M646.784 243.169V270.077M646.784 243.169H673.692M646.784 270.077V296.984M646.784 270.077H673.692M646.784 296.984V323.892M646.784 296.984H673.692M646.784 323.892V350.8M646.784 323.892H673.692M646.784 350.8V377.707M646.784 350.8H673.692M646.784 377.707V404.615M646.784 377.707H673.692M646.784 404.615V431.523M646.784 404.615H673.692M646.784 431.523V458.43M646.784 431.523H673.692M646.784 458.43V485.338M646.784 458.43H673.692M646.784 485.338V512.246M646.784 485.338H673.692M646.784 512.246V539.153M646.784 512.246H673.692M646.784 539.153H673.692M673.692 1V27.9077M673.692 1H700.599M673.692 27.9077V54.8153M673.692 27.9077H700.599M673.692 54.8153V81.723M673.692 54.8153H700.599M673.692 81.723V108.631M673.692 81.723H700.599M673.692 108.631V135.538M673.692 108.631H700.599M673.692 135.538V162.446M673.692 135.538H700.599M673.692 162.446V189.354M673.692 162.446H700.599M673.692 189.354V216.261M673.692 189.354H700.599M673.692 216.261V243.169M673.692 216.261H700.599M673.692 243.169V270.077M673.692 243.169H700.599M673.692 270.077V296.984M673.692 270.077H700.599M673.692 296.984V323.892M673.692 296.984H700.599M673.692 323.892V350.8M673.692 323.892H700.599M673.692 350.8V377.707M673.692 350.8H700.599M673.692 377.707V404.615M673.692 377.707H700.599M673.692 404.615V431.523M673.692 404.615H700.599M673.692 431.523V458.43M673.692 431.523H700.599M673.692 458.43V485.338M673.692 458.43H700.599M673.692 485.338V512.246M673.692 485.338H700.599M673.692 512.246V539.153M673.692 512.246H700.599M673.692 539.153H700.599M700.599 1V27.9077M700.599 1H727.507M700.599 27.9077V54.8153M700.599 27.9077H727.507M700.599 54.8153V81.723M700.599 54.8153H727.507M700.599 81.723V108.631M700.599 81.723H727.507M700.599 108.631V135.538M700.599 108.631H727.507M700.599 135.538V162.446M700.599 135.538H727.507M700.599 162.446V189.354M700.599 162.446H727.507M700.599 189.354V216.261M700.599 189.354H727.507M700.599 216.261V243.169M700.599 216.261H727.507M700.599 243.169V270.077M700.599 243.169H727.507M700.599 270.077V296.984M700.599 270.077H727.507M700.599 296.984V323.892M700.599 296.984H727.507M700.599 323.892V350.8M700.599 323.892H727.507M700.599 350.8V377.707M700.599 350.8H727.507M700.599 377.707V404.615M700.599 377.707H727.507M700.599 404.615V431.523M700.599 404.615H727.507M700.599 431.523V458.43M700.599 431.523H727.507M700.599 458.43V485.338M700.599 458.43H727.507M700.599 485.338V512.246M700.599 485.338H727.507M700.599 512.246V539.153M700.599 512.246H727.507M700.599 539.153H727.507M727.507 1V27.9077M727.507 1H754.415M727.507 27.9077V54.8153M727.507 27.9077H754.415M727.507 54.8153V81.723M727.507 54.8153H754.415M727.507 81.723V108.631M727.507 81.723H754.415M727.507 108.631V135.538M727.507 108.631H754.415M727.507 135.538V162.446M727.507 135.538H754.415M727.507 162.446V189.354M727.507 162.446H754.415M727.507 189.354V216.261M727.507 189.354H754.415M727.507 216.261V243.169M727.507 216.261H754.415M727.507 243.169V270.077M727.507 243.169H754.415M727.507 270.077V296.984M727.507 270.077H754.415M727.507 296.984V323.892M727.507 296.984H754.415M727.507 323.892V350.8M727.507 323.892H754.415M727.507 350.8V377.707M727.507 350.8H754.415M727.507 377.707V404.615M727.507 377.707H754.415M727.507 404.615V431.523M727.507 404.615H754.415M727.507 431.523V458.43M727.507 431.523H754.415M727.507 458.43V485.338M727.507 458.43H754.415M727.507 485.338V512.246M727.507 485.338H754.415M727.507 512.246V539.153M727.507 512.246H754.415M727.507 539.153H754.415M754.415 1V27.9077M754.415 1H781.323M754.415 27.9077V54.8153M754.415 27.9077H781.323M754.415 54.8153V81.723M754.415 54.8153H781.323M754.415 81.723V108.631M754.415 81.723H781.323M754.415 108.631V135.538M754.415 108.631H781.323M754.415 135.538V162.446M754.415 135.538H781.323M754.415 162.446V189.354M754.415 162.446H781.323M754.415 189.354V216.261M754.415 189.354H781.323M754.415 216.261V243.169M754.415 216.261H781.323M754.415 243.169V270.077M754.415 243.169H781.323M754.415 270.077V296.984M754.415 270.077H781.323M754.415 296.984V323.892M754.415 296.984H781.323M754.415 323.892V350.8M754.415 323.892H781.323M754.415 350.8V377.707M754.415 350.8H781.323M754.415 377.707V404.615M754.415 377.707H781.323M754.415 404.615V431.523M754.415 404.615H781.323M754.415 431.523V458.43M754.415 431.523H781.323M754.415 458.43V485.338M754.415 458.43H781.323M754.415 485.338V512.246M754.415 485.338H781.323M754.415 512.246V539.153M754.415 512.246H781.323M754.415 539.153H781.323M781.323 1V27.9077M781.323 1H808.23M781.323 27.9077V54.8153M781.323 27.9077H808.23M781.323 54.8153V81.723M781.323 54.8153H808.23M781.323 81.723V108.631M781.323 81.723H808.23M781.323 108.631V135.538M781.323 108.631H808.23M781.323 135.538V162.446M781.323 135.538H808.23M781.323 162.446V189.354M781.323 162.446H808.23M781.323 189.354V216.261M781.323 189.354H808.23M781.323 216.261V243.169M781.323 216.261H808.23M781.323 243.169V270.077M781.323 243.169H808.23M781.323 270.077V296.984M781.323 270.077H808.23M781.323 296.984V323.892M781.323 296.984H808.23M781.323 323.892V350.8M781.323 323.892H808.23M781.323 350.8V377.707M781.323 350.8H808.23M781.323 377.707V404.615M781.323 377.707H808.23M781.323 404.615V431.523M781.323 404.615H808.23M781.323 431.523V458.43M781.323 431.523H808.23M781.323 458.43V485.338M781.323 458.43H808.23M781.323 485.338V512.246M781.323 485.338H808.23M781.323 512.246V539.153M781.323 512.246H808.23M781.323 539.153H808.23M808.23 1V27.9077M808.23 1H835.138M808.23 27.9077V54.8153M808.23 27.9077H835.138M808.23 54.8153V81.723M808.23 54.8153H835.138M808.23 81.723V108.631M808.23 81.723H835.138M808.23 108.631V135.538M808.23 108.631H835.138M808.23 135.538V162.446M808.23 135.538H835.138M808.23 162.446V189.354M808.23 162.446H835.138M808.23 189.354V216.261M808.23 189.354H835.138M808.23 216.261V243.169M808.23 216.261H835.138M808.23 243.169V270.077M808.23 243.169H835.138M808.23 270.077V296.984M808.23 270.077H835.138M808.23 296.984V323.892M808.23 296.984H835.138M808.23 323.892V350.8M808.23 323.892H835.138M808.23 350.8V377.707M808.23 350.8H835.138M808.23 377.707V404.615M808.23 377.707H835.138M808.23 404.615V431.523M808.23 404.615H835.138M808.23 431.523V458.43M808.23 431.523H835.138M808.23 458.43V485.338M808.23 458.43H835.138M808.23 485.338V512.246M808.23 485.338H835.138M808.23 512.246V539.153M808.23 512.246H835.138M808.23 539.153H835.138M835.138 1V27.9077M835.138 1H862.046M835.138 27.9077V54.8153M835.138 27.9077H862.046M835.138 54.8153V81.723M835.138 54.8153H862.046M835.138 81.723V108.631M835.138 81.723H862.046M835.138 108.631V135.538M835.138 108.631H862.046M835.138 135.538V162.446M835.138 135.538H862.046M835.138 162.446V189.354M835.138 162.446H862.046M835.138 189.354V216.261M835.138 189.354H862.046M835.138 216.261V243.169M835.138 216.261H862.046M835.138 243.169V270.077M835.138 243.169H862.046M835.138 270.077V296.984M835.138 270.077H862.046M835.138 296.984V323.892M835.138 296.984H862.046M835.138 323.892V350.8M835.138 323.892H862.046M835.138 350.8V377.707M835.138 350.8H862.046M835.138 377.707V404.615M835.138 377.707H862.046M835.138 404.615V431.523M835.138 404.615H862.046M835.138 431.523V458.43M835.138 431.523H862.046M835.138 458.43V485.338M835.138 458.43H862.046M835.138 485.338V512.246M835.138 485.338H862.046M835.138 512.246V539.153M835.138 512.246H862.046M835.138 539.153H862.046M862.046 1V27.9077M862.046 1H888.953M862.046 27.9077V54.8153M862.046 27.9077H888.953M862.046 54.8153V81.723M862.046 54.8153H888.953M862.046 81.723V108.631M862.046 81.723H888.953M862.046 108.631V135.538M862.046 108.631H888.953M862.046 135.538V162.446M862.046 135.538H888.953M862.046 162.446V189.354M862.046 162.446H888.953M862.046 189.354V216.261M862.046 189.354H888.953M862.046 216.261V243.169M862.046 216.261H888.953M862.046 243.169V270.077M862.046 243.169H888.953M862.046 270.077V296.984M862.046 270.077H888.953M862.046 296.984V323.892M862.046 296.984H888.953M862.046 323.892V350.8M862.046 323.892H888.953M862.046 350.8V377.707M862.046 350.8H888.953M862.046 377.707V404.615M862.046 377.707H888.953M862.046 404.615V431.523M862.046 404.615H888.953M862.046 431.523V458.43M862.046 431.523H888.953M862.046 458.43V485.338M862.046 458.43H888.953M862.046 485.338V512.246M862.046 485.338H888.953M862.046 512.246V539.153M862.046 512.246H888.953M862.046 539.153H888.953M888.953 1V27.9077M888.953 1H915.861M888.953 27.9077V54.8153M888.953 27.9077H915.861M888.953 54.8153V81.723M888.953 54.8153H915.861M888.953 81.723V108.631M888.953 81.723H915.861M888.953 108.631V135.538M888.953 108.631H915.861M888.953 135.538V162.446M888.953 135.538H915.861M888.953 162.446V189.354M888.953 162.446H915.861M888.953 189.354V216.261M888.953 189.354H915.861M888.953 216.261V243.169M888.953 216.261H915.861M888.953 243.169V270.077M888.953 243.169H915.861M888.953 270.077V296.984M888.953 270.077H915.861M888.953 296.984V323.892M888.953 296.984H915.861M888.953 323.892V350.8M888.953 323.892H915.861M888.953 350.8V377.707M888.953 350.8H915.861M888.953 377.707V404.615M888.953 377.707H915.861M888.953 404.615V431.523M888.953 404.615H915.861M888.953 431.523V458.43M888.953 431.523H915.861M888.953 458.43V485.338M888.953 458.43H915.861M888.953 485.338V512.246M888.953 485.338H915.861M888.953 512.246V539.153M888.953 512.246H915.861M888.953 539.153H915.861M915.861 1V27.9077M915.861 1H942.769M915.861 27.9077V54.8153M915.861 27.9077H942.769M915.861 54.8153V81.723M915.861 54.8153H942.769M915.861 81.723V108.631M915.861 81.723H942.769M915.861 108.631V135.538M915.861 108.631H942.769M915.861 135.538V162.446M915.861 135.538H942.769M915.861 162.446V189.354M915.861 162.446H942.769M915.861 189.354V216.261M915.861 189.354H942.769M915.861 216.261V243.169M915.861 216.261H942.769M915.861 243.169V270.077M915.861 243.169H942.769M915.861 270.077V296.984M915.861 270.077H942.769M915.861 296.984V323.892M915.861 296.984H942.769M915.861 323.892V350.8M915.861 323.892H942.769M915.861 350.8V377.707M915.861 350.8H942.769M915.861 377.707V404.615M915.861 377.707H942.769M915.861 404.615V431.523M915.861 404.615H942.769M915.861 431.523V458.43M915.861 431.523H942.769M915.861 458.43V485.338M915.861 458.43H942.769M915.861 485.338V512.246M915.861 485.338H942.769M915.861 512.246V539.153M915.861 512.246H942.769M915.861 539.153H942.769M942.769 1V27.9077M942.769 1H969.676M942.769 27.9077V54.8153M942.769 27.9077H969.676M942.769 54.8153V81.723M942.769 54.8153H969.676M942.769 81.723V108.631M942.769 81.723H969.676M942.769 108.631V135.538M942.769 108.631H969.676M942.769 135.538V162.446M942.769 135.538H969.676M942.769 162.446V189.354M942.769 162.446H969.676M942.769 189.354V216.261M942.769 189.354H969.676M942.769 216.261V243.169M942.769 216.261H969.676M942.769 243.169V270.077M942.769 243.169H969.676M942.769 270.077V296.984M942.769 270.077H969.676M942.769 296.984V323.892M942.769 296.984H969.676M942.769 323.892V350.8M942.769 323.892H969.676M942.769 350.8V377.707M942.769 350.8H969.676M942.769 377.707V404.615M942.769 377.707H969.676M942.769 404.615V431.523M942.769 404.615H969.676M942.769 431.523V458.43M942.769 431.523H969.676M942.769 458.43V485.338M942.769 458.43H969.676M942.769 485.338V512.246M942.769 485.338H969.676M942.769 512.246V539.153M942.769 512.246H969.676M942.769 539.153H969.676M969.676 1V27.9077M969.676 1H996.584M969.676 27.9077V54.8153M969.676 27.9077H996.584M969.676 54.8153V81.723M969.676 54.8153H996.584M969.676 81.723V108.631M969.676 81.723H996.584M969.676 108.631V135.538M969.676 108.631H996.584M969.676 135.538V162.446M969.676 135.538H996.584M969.676 162.446V189.354M969.676 162.446H996.584M969.676 189.354V216.261M969.676 189.354H996.584M969.676 216.261V243.169M969.676 216.261H996.584M969.676 243.169V270.077M969.676 243.169H996.584M969.676 270.077V296.984M969.676 270.077H996.584M969.676 296.984V323.892M969.676 296.984H996.584M969.676 323.892V350.8M969.676 323.892H996.584M969.676 350.8V377.707M969.676 350.8H996.584M969.676 377.707V404.615M969.676 377.707H996.584M969.676 404.615V431.523M969.676 404.615H996.584M969.676 431.523V458.43M969.676 431.523H996.584M969.676 458.43V485.338M969.676 458.43H996.584M969.676 485.338V512.246M969.676 485.338H996.584M969.676 512.246V539.153M969.676 512.246H996.584M969.676 539.153H996.584M996.584 1V27.9077M996.584 1H1023.49M996.584 27.9077V54.8153M996.584 27.9077H1023.49M996.584 54.8153V81.723M996.584 54.8153H1023.49M996.584 81.723V108.631M996.584 81.723H1023.49M996.584 108.631V135.538M996.584 108.631H1023.49M996.584 135.538V162.446M996.584 135.538H1023.49M996.584 162.446V189.354M996.584 162.446H1023.49M996.584 189.354V216.261M996.584 189.354H1023.49M996.584 216.261V243.169M996.584 216.261H1023.49M996.584 243.169V270.077M996.584 243.169H1023.49M996.584 270.077V296.984M996.584 270.077H1023.49M996.584 296.984V323.892M996.584 296.984H1023.49M996.584 323.892V350.8M996.584 323.892H1023.49M996.584 350.8V377.707M996.584 350.8H1023.49M996.584 377.707V404.615M996.584 377.707H1023.49M996.584 404.615V431.523M996.584 404.615H1023.49M996.584 431.523V458.43M996.584 431.523H1023.49M996.584 458.43V485.338M996.584 458.43H1023.49M996.584 485.338V512.246M996.584 485.338H1023.49M996.584 512.246V539.153M996.584 512.246H1023.49M996.584 539.153H1023.49M1023.49 1V27.9077M1023.49 1H1050.4M1023.49 27.9077V54.8153M1023.49 27.9077H1050.4M1023.49 54.8153V81.723M1023.49 54.8153H1050.4M1023.49 81.723V108.631M1023.49 81.723H1050.4M1023.49 108.631V135.538M1023.49 108.631H1050.4M1023.49 135.538V162.446M1023.49 135.538H1050.4M1023.49 162.446V189.354M1023.49 162.446H1050.4M1023.49 189.354V216.261M1023.49 189.354H1050.4M1023.49 216.261V243.169M1023.49 216.261H1050.4M1023.49 243.169V270.077M1023.49 243.169H1050.4M1023.49 270.077V296.984M1023.49 270.077H1050.4M1023.49 296.984V323.892M1023.49 296.984H1050.4M1023.49 323.892V350.8M1023.49 323.892H1050.4M1023.49 350.8V377.707M1023.49 350.8H1050.4M1023.49 377.707V404.615M1023.49 377.707H1050.4M1023.49 404.615V431.523M1023.49 404.615H1050.4M1023.49 431.523V458.43M1023.49 431.523H1050.4M1023.49 458.43V485.338M1023.49 458.43H1050.4M1023.49 485.338V512.246M1023.49 485.338H1050.4M1023.49 512.246V539.153M1023.49 512.246H1050.4M1023.49 539.153H1050.4M1050.4 1V27.9077M1050.4 1H1077.31M1050.4 27.9077V54.8153M1050.4 27.9077H1077.31M1050.4 54.8153V81.723M1050.4 54.8153H1077.31M1050.4 81.723V108.631M1050.4 81.723H1077.31M1050.4 108.631V135.538M1050.4 108.631H1077.31M1050.4 135.538V162.446M1050.4 135.538H1077.31M1050.4 162.446V189.354M1050.4 162.446H1077.31M1050.4 189.354V216.261M1050.4 189.354H1077.31M1050.4 216.261V243.169M1050.4 216.261H1077.31M1050.4 243.169V270.077M1050.4 243.169H1077.31M1050.4 270.077V296.984M1050.4 270.077H1077.31M1050.4 296.984V323.892M1050.4 296.984H1077.31M1050.4 323.892V350.8M1050.4 323.892H1077.31M1050.4 350.8V377.707M1050.4 350.8H1077.31M1050.4 377.707V404.615M1050.4 377.707H1077.31M1050.4 404.615V431.523M1050.4 404.615H1077.31M1050.4 431.523V458.43M1050.4 431.523H1077.31M1050.4 458.43V485.338M1050.4 458.43H1077.31M1050.4 485.338V512.246M1050.4 485.338H1077.31M1050.4 512.246V539.153M1050.4 512.246H1077.31M1050.4 539.153H1077.31M1077.31 1V27.9077M1077.31 1H1104.21M1077.31 27.9077V54.8153M1077.31 27.9077H1104.21M1077.31 54.8153V81.723M1077.31 54.8153H1104.21M1077.31 81.723V108.631M1077.31 81.723H1104.21M1077.31 108.631V135.538M1077.31 108.631H1104.21M1077.31 135.538V162.446M1077.31 135.538H1104.21M1077.31 162.446V189.354M1077.31 162.446H1104.21M1077.31 189.354V216.261M1077.31 189.354H1104.21M1077.31 216.261V243.169M1077.31 216.261H1104.21M1077.31 243.169V270.077M1077.31 243.169H1104.21M1077.31 270.077V296.984M1077.31 270.077H1104.21M1077.31 296.984V323.892M1077.31 296.984H1104.21M1077.31 323.892V350.8M1077.31 323.892H1104.21M1077.31 350.8V377.707M1077.31 350.8H1104.21M1077.31 377.707V404.615M1077.31 377.707H1104.21M1077.31 404.615V431.523M1077.31 404.615H1104.21M1077.31 431.523V458.43M1077.31 431.523H1104.21M1077.31 458.43V485.338M1077.31 458.43H1104.21M1077.31 485.338V512.246M1077.31 485.338H1104.21M1077.31 512.246V539.153M1077.31 512.246H1104.21M1077.31 539.153H1104.21M1104.21 1V27.9077M1104.21 1H1131.12M1104.21 27.9077V54.8153M1104.21 27.9077H1131.12M1104.21 54.8153V81.723M1104.21 54.8153H1131.12M1104.21 81.723V108.631M1104.21 81.723H1131.12M1104.21 108.631V135.538M1104.21 108.631H1131.12M1104.21 135.538V162.446M1104.21 135.538H1131.12M1104.21 162.446V189.354M1104.21 162.446H1131.12M1104.21 189.354V216.261M1104.21 189.354H1131.12M1104.21 216.261V243.169M1104.21 216.261H1131.12M1104.21 243.169V270.077M1104.21 243.169H1131.12M1104.21 270.077V296.984M1104.21 270.077H1131.12M1104.21 296.984V323.892M1104.21 296.984H1131.12M1104.21 323.892V350.8M1104.21 323.892H1131.12M1104.21 350.8V377.707M1104.21 350.8H1131.12M1104.21 377.707V404.615M1104.21 377.707H1131.12M1104.21 404.615V431.523M1104.21 404.615H1131.12M1104.21 431.523V458.43M1104.21 431.523H1131.12M1104.21 458.43V485.338M1104.21 458.43H1131.12M1104.21 485.338V512.246M1104.21 485.338H1131.12M1104.21 512.246V539.153M1104.21 512.246H1131.12M1104.21 539.153H1131.12M1131.12 1V27.9077M1131.12 1H1158.03M1131.12 27.9077V54.8153M1131.12 27.9077H1158.03M1131.12 54.8153V81.723M1131.12 54.8153H1158.03M1131.12 81.723V108.631M1131.12 81.723H1158.03M1131.12 108.631V135.538M1131.12 108.631H1158.03M1131.12 135.538V162.446M1131.12 135.538H1158.03M1131.12 162.446V189.354M1131.12 162.446H1158.03M1131.12 189.354V216.261M1131.12 189.354H1158.03M1131.12 216.261V243.169M1131.12 216.261H1158.03M1131.12 243.169V270.077M1131.12 243.169H1158.03M1131.12 270.077V296.984M1131.12 270.077H1158.03M1131.12 296.984V323.892M1131.12 296.984H1158.03M1131.12 323.892V350.8M1131.12 323.892H1158.03M1131.12 350.8V377.707M1131.12 350.8H1158.03M1131.12 377.707V404.615M1131.12 377.707H1158.03M1131.12 404.615V431.523M1131.12 404.615H1158.03M1131.12 431.523V458.43M1131.12 431.523H1158.03M1131.12 458.43V485.338M1131.12 458.43H1158.03M1131.12 485.338V512.246M1131.12 485.338H1158.03M1131.12 512.246V539.153M1131.12 512.246H1158.03M1131.12 539.153H1158.03M1158.03 1V27.9077M1158.03 1H1184.94V27.9077M1158.03 27.9077V54.8153M1158.03 27.9077H1184.94M1158.03 54.8153V81.723M1158.03 54.8153H1184.94M1158.03 81.723V108.631M1158.03 81.723H1184.94M1158.03 108.631V135.538M1158.03 108.631H1184.94M1158.03 135.538V162.446M1158.03 135.538H1184.94M1158.03 162.446V189.354M1158.03 162.446H1184.94M1158.03 189.354V216.261M1158.03 189.354H1184.94M1158.03 216.261V243.169M1158.03 216.261H1184.94M1158.03 243.169V270.077M1158.03 243.169H1184.94M1158.03 270.077V296.984M1158.03 270.077H1184.94M1158.03 296.984V323.892M1158.03 296.984H1184.94M1158.03 323.892V350.8M1158.03 323.892H1184.94M1158.03 350.8V377.707M1158.03 350.8H1184.94M1158.03 377.707V404.615M1158.03 377.707H1184.94M1158.03 404.615V431.523M1158.03 404.615H1184.94M1158.03 431.523V458.43M1158.03 431.523H1184.94M1158.03 458.43V485.338M1158.03 458.43H1184.94M1158.03 485.338V512.246M1158.03 485.338H1184.94M1158.03 512.246V539.153M1158.03 512.246H1184.94M1158.03 539.153H1184.94V512.246M1184.94 27.9077V54.8153M1184.94 54.8153V81.723M1184.94 81.723V108.631M1184.94 108.631V135.538M1184.94 135.538V162.446M1184.94 162.446V189.354M1184.94 189.354V216.261M1184.94 216.261V243.169M1184.94 243.169V270.077M1184.94 270.077V296.984M1184.94 296.984V323.892M1184.94 323.892V350.8M1184.94 350.8V377.707M1184.94 377.707V404.615M1184.94 404.615V431.523M1184.94 431.523V458.43M1184.94 458.43V485.338M1184.94 485.338V512.246" stroke="url(#paint0_radial_0_19)" stroke-width="0.336346"/>
</g>
<defs>
<radialGradient id="paint0_radial_0_19" cx="0" cy="0" r="1" gradientUnits="userSpaceOnUse" gradientTransform="translate(592.969 270.077) rotate(90) scale(269.077 591.969)">
<stop stop-color="#FFBB00"/>
<stop offset="1" stop-color="white" stop-opacity="0"/>
</radialGradient>
</defs>
</svg>
