<svg preserveAspectRatio="none" width="100%" height="100%" overflow="visible" style="display: block;" viewBox="0 0 1201 555" fill="none" xmlns="http://www.w3.org/2000/svg">
<g id="Vector" style="mix-blend-mode:soft-light" opacity="0.8">
<path d="M115.703 107.631V115.703M115.703 115.703V123.775M115.703 115.703H107.631M115.703 115.703H123.775M115.703 322.892V330.964M115.703 330.964V339.037M115.703 330.964H107.631M115.703 330.964H123.775M115.703 538.153V546.226M115.703 546.226V554.298M115.703 546.226H107.631M115.703 546.226H123.775M330.964 107.631V115.703M330.964 115.703V123.775M330.964 115.703H322.892M330.964 115.703H339.037M330.964 322.892V330.964M330.964 330.964V339.037M330.964 330.964H322.892M330.964 330.964H339.037M330.964 538.153V546.226M330.964 546.226V554.298M330.964 546.226H322.892M330.964 546.226H339.037M546.226 107.631V115.703M546.226 115.703V123.775M546.226 115.703H538.154M546.226 115.703H554.298M546.226 322.892V330.964M546.226 330.964V339.037M546.226 330.964H538.154M546.226 330.964H554.298M546.226 538.153V546.226M546.226 546.226V554.298M546.226 546.226H538.154M546.226 546.226H554.298M761.487 107.631V115.703M761.487 115.703V123.775M761.487 115.703H753.415M761.487 115.703H769.56M761.487 322.892V330.964M761.487 330.964V339.037M761.487 330.964H753.415M761.487 330.964H769.56M761.487 538.153V546.226M761.487 546.226V554.298M761.487 546.226H753.415M761.487 546.226H769.56M976.749 107.631V115.703M976.749 115.703V123.775M976.749 115.703H968.676M976.749 115.703H984.821M976.749 322.892V330.964M976.749 330.964V339.037M976.749 330.964H968.676M976.749 330.964H984.821M976.749 538.153V546.226M976.749 546.226V554.298M976.749 546.226H968.676M976.749 546.226H984.821M1192.01 107.631V115.703M1192.01 115.703V123.775M1192.01 115.703H1183.94M1192.01 115.703H1200.08M1192.01 322.892V330.964M1192.01 330.964V339.037M1192.01 330.964H1183.94M1192.01 330.964H1200.08M1192.01 538.153V546.226M1192.01 546.226V554.298M1192.01 546.226H1183.94M1192.01 546.226H1200.08M115.703 0V8.0723M115.703 8.0723V16.1446M115.703 8.0723H107.631M115.703 8.0723H123.775M115.703 215.261V223.334M115.703 223.334V231.406M115.703 223.334H107.631M115.703 223.334H123.775M115.703 430.523V438.595M115.703 438.595V446.667M115.703 438.595H107.631M115.703 438.595H123.775M330.964 0V8.0723M330.964 8.0723V16.1446M330.964 8.0723H322.892M330.964 8.0723H339.037M330.964 215.261V223.334M330.964 223.334V231.406M330.964 223.334H322.892M330.964 223.334H339.037M330.964 430.523V438.595M330.964 438.595V446.667M330.964 438.595H322.892M330.964 438.595H339.037M546.226 0V8.0723M546.226 8.0723V16.1446M546.226 8.0723H538.154M546.226 8.0723H554.298M546.226 215.261V223.334M546.226 223.334V231.406M546.226 223.334H538.154M546.226 223.334H554.298M546.226 430.523V438.595M546.226 438.595V446.667M546.226 438.595H538.154M546.226 438.595H554.298M761.487 0V8.0723M761.487 8.0723V16.1446M761.487 8.0723H753.415M761.487 8.0723H769.56M761.487 215.261V223.334M761.487 223.334V231.406M761.487 223.334H753.415M761.487 223.334H769.56M761.487 430.523V438.595M761.487 438.595V446.667M761.487 438.595H753.415M761.487 438.595H769.56M976.749 0V8.0723M976.749 8.0723V16.1446M976.749 8.0723H968.676M976.749 8.0723H984.821M976.749 215.261V223.334M976.749 223.334V231.406M976.749 223.334H968.676M976.749 223.334H984.821M976.749 430.523V438.595M976.749 438.595V446.667M976.749 438.595H968.676M976.749 438.595H984.821M1192.01 0V8.0723M1192.01 8.0723V16.1446M1192.01 8.0723H1183.94M1192.01 8.0723H1200.08M1192.01 215.261V223.334M1192.01 223.334V231.406M1192.01 223.334H1183.94M1192.01 223.334H1200.08M1192.01 430.523V438.595M1192.01 438.595V446.667M1192.01 438.595H1183.94M1192.01 438.595H1200.08M8.0723 107.631V115.703M8.0723 115.703V123.775M8.0723 115.703H0M8.0723 115.703H16.1446M8.0723 322.892V330.964M8.0723 330.964V339.037M8.0723 330.964H0M8.0723 330.964H16.1446M8.0723 538.153V546.226M8.0723 546.226V554.298M8.0723 546.226H0M8.0723 546.226H16.1446M223.334 107.631V115.703M223.334 115.703V123.775M223.334 115.703H215.261M223.334 115.703H231.406M223.334 322.892V330.964M223.334 330.964V339.037M223.334 330.964H215.261M223.334 330.964H231.406M223.334 538.153V546.226M223.334 546.226V554.298M223.334 546.226H215.261M223.334 546.226H231.406M438.595 107.631V115.703M438.595 115.703V123.775M438.595 115.703H430.523M438.595 115.703H446.667M438.595 322.892V330.964M438.595 330.964V339.037M438.595 330.964H430.523M438.595 330.964H446.667M438.595 538.153V546.226M438.595 546.226V554.298M438.595 546.226H430.523M438.595 546.226H446.667M653.857 107.631V115.703M653.857 115.703V123.775M653.857 115.703H645.784M653.857 115.703H661.929M653.857 322.892V330.964M653.857 330.964V339.037M653.857 330.964H645.784M653.857 330.964H661.929M653.857 538.153V546.226M653.857 546.226V554.298M653.857 546.226H645.784M653.857 546.226H661.929M869.118 107.631V115.703M869.118 115.703V123.775M869.118 115.703H861.046M869.118 115.703H877.19M869.118 322.892V330.964M869.118 330.964V339.037M869.118 330.964H861.046M869.118 330.964H877.19M869.118 538.153V546.226M869.118 546.226V554.298M869.118 546.226H861.046M869.118 546.226H877.19M1084.38 107.631V115.703M1084.38 115.703V123.775M1084.38 115.703H1076.31M1084.38 115.703H1092.45M1084.38 322.892V330.964M1084.38 330.964V339.037M1084.38 330.964H1076.31M1084.38 330.964H1092.45M1084.38 538.153V546.226M1084.38 546.226V554.298M1084.38 546.226H1076.31M1084.38 546.226H1092.45M8.0723 3.96835e-05V8.07234M8.0723 8.07234V16.1446M8.0723 8.07234H0M8.0723 8.07234H16.1446M8.0723 215.261V223.334M8.0723 223.334V231.406M8.0723 223.334H0M8.0723 223.334H16.1446M8.0723 430.523V438.595M8.0723 438.595V446.667M8.0723 438.595H0M8.0723 438.595H16.1446M223.334 0V8.0723M223.334 8.0723V16.1446M223.334 8.0723H215.261M223.334 8.0723H231.406M223.334 215.261V223.334M223.334 223.334V231.406M223.334 223.334H215.261M223.334 223.334H231.406M223.334 430.523V438.595M223.334 438.595V446.667M223.334 438.595H215.261M223.334 438.595H231.406M438.595 0V8.0723M438.595 8.0723V16.1446M438.595 8.0723H430.523M438.595 8.0723H446.667M438.595 215.261V223.334M438.595 223.334V231.406M438.595 223.334H430.523M438.595 223.334H446.667M438.595 430.523V438.595M438.595 438.595V446.667M438.595 438.595H430.523M438.595 438.595H446.667M653.857 0V8.0723M653.857 8.0723V16.1446M653.857 8.0723H645.784M653.857 8.0723H661.929M653.857 215.261V223.334M653.857 223.334V231.406M653.857 223.334H645.784M653.857 223.334H661.929M653.857 430.523V438.595M653.857 438.595V446.667M653.857 438.595H645.784M653.857 438.595H661.929M869.118 0V8.0723M869.118 8.0723V16.1446M869.118 8.0723H861.046M869.118 8.0723H877.19M869.118 215.261V223.334M869.118 223.334V231.406M869.118 223.334H861.046M869.118 223.334H877.19M869.118 430.523V438.595M869.118 438.595V446.667M869.118 438.595H861.046M869.118 438.595H877.19M1084.38 0V8.0723M1084.38 8.0723V16.1446M1084.38 8.0723H1076.31M1084.38 8.0723H1092.45M1084.38 215.261V223.334M1084.38 223.334V231.406M1084.38 223.334H1076.31M1084.38 223.334H1092.45M1084.38 430.523V438.595M1084.38 438.595V446.667M1084.38 438.595H1076.31M1084.38 438.595H1092.45" stroke="url(#paint0_radial_0_8)" stroke-width="0.672692"/>
</g>
<defs>
<radialGradient id="paint0_radial_0_8" cx="0" cy="0" r="1" gradientUnits="userSpaceOnUse" gradientTransform="translate(600.041 277.149) rotate(90) scale(277.149 600.041)">
<stop stop-color="#FFBB00"/>
<stop offset="1" stop-color="white" stop-opacity="0"/>
</radialGradient>
</defs>
</svg>
