<svg preserveAspectRatio="none" width="100%" height="100%" overflow="visible" style="display: block;" viewBox="0 0 24 24" fill="none" xmlns="http://www.w3.org/2000/svg">
<g id="account-plus-outline">
<path id="Vector" d="M11.8379 4.4248C10.777 4.4248 9.75961 4.84623 9.00946 5.59638C8.25932 6.34652 7.83789 7.36394 7.83789 8.4248C7.83789 9.48567 8.25932 10.5031 9.00946 11.2532C9.75961 12.0034 10.777 12.4248 11.8379 12.4248C12.8988 12.4248 13.9162 12.0034 14.6663 11.2532C15.4165 10.5031 15.8379 9.48567 15.8379 8.4248C15.8379 7.36394 15.4165 6.34652 14.6663 5.59638C13.9162 4.84623 12.8988 4.4248 11.8379 4.4248ZM11.8379 6.3248C12.9979 6.3248 13.9379 7.2648 13.9379 8.4248C13.9379 9.5848 12.9979 10.5248 11.8379 10.5248C11.2809 10.5248 10.7468 10.3036 10.353 9.90973C9.95914 9.5159 9.73789 8.98176 9.73789 8.4248C9.73789 7.86785 9.95914 7.33371 10.353 6.93988C10.7468 6.54605 11.2809 6.3248 11.8379 6.3248ZM11.8379 13.4248C9.16789 13.4248 3.83789 14.7548 3.83789 17.4248V20.4248H19.8379V17.4248C19.8379 14.7548 14.5079 13.4248 11.8379 13.4248ZM11.8379 15.3248C14.8079 15.3248 17.9379 16.7848 17.9379 17.4248V18.5248H5.73789V17.4248C5.73789 16.7848 8.83789 15.3248 11.8379 15.3248Z" fill="var(--fill-0, #0B1C3F)"/>
</g>
</svg>
